<svg width="373" height="490" viewBox="0 0 373 490" fill="none" xmlns="http://www.w3.org/2000/svg">
<mask id="mask0" mask-type="alpha" maskUnits="userSpaceOnUse" x="0" y="227" width="262" height="263">
<rect x="0.5" y="227.979" width="261" height="261" fill="#FF5722" stroke="#FF5722"/>
</mask>
<g mask="url(#mask0)">
<path d="M-138.28 337.198L105.915 628.218" stroke="#FF5722" stroke-width="2"/>
<path d="M-111.52 314.743L132.675 605.763" stroke="#FF5722" stroke-width="2"/>
<path d="M-84.7593 292.288L159.436 583.308" stroke="#FF5722" stroke-width="2"/>
<path d="M-57.9988 269.833L186.196 560.854" stroke="#FF5722" stroke-width="2"/>
<path d="M-31.2383 247.377L212.957 538.398" stroke="#FF5722" stroke-width="2"/>
<path d="M-4.47778 224.923L239.717 515.944" stroke="#FF5722" stroke-width="2"/>
<path d="M22.2827 202.469L266.478 493.489" stroke="#FF5722" stroke-width="2"/>
<path d="M49.0431 180.014L293.238 471.034" stroke="#FF5722" stroke-width="2"/>
<path d="M75.8037 157.56L319.999 448.58" stroke="#FF5722" stroke-width="2"/>
<path d="M102.564 135.105L346.759 426.125" stroke="#FF5722" stroke-width="2"/>
<path d="M129.325 112.651L373.52 403.671" stroke="#FF5722" stroke-width="2"/>
<path d="M156.085 90.1948L400.28 381.215" stroke="#FF5722" stroke-width="2"/>
</g>
<g opacity="0.7">
<mask id="mask1" mask-type="alpha" maskUnits="userSpaceOnUse" x="111" y="0" width="262" height="263">
<rect x="111.5" y="0.979004" width="261" height="261" fill="#FF5722" stroke="#FF5722"/>
</mask>
<g mask="url(#mask1)">
<path d="M-27.28 110.198L216.915 401.218" stroke="#FF5722" stroke-width="2"/>
<path d="M-0.519775 87.7427L243.675 378.763" stroke="#FF5722" stroke-width="2"/>
<path d="M26.2406 65.2881L270.436 356.308" stroke="#FF5722" stroke-width="2"/>
<path d="M53.0011 42.8335L297.196 333.854" stroke="#FF5722" stroke-width="2"/>
<path d="M79.7617 20.3774L323.957 311.398" stroke="#FF5722" stroke-width="2"/>
<path d="M106.522 -2.07715L350.717 288.943" stroke="#FF5722" stroke-width="2"/>
<path d="M133.282 -24.5312L377.477 266.489" stroke="#FF5722" stroke-width="2"/>
<path d="M160.043 -46.9858L404.238 244.034" stroke="#FF5722" stroke-width="2"/>
<path d="M186.803 -69.4404L430.998 221.58" stroke="#FF5722" stroke-width="2"/>
<path d="M213.564 -91.895L457.759 199.125" stroke="#FF5722" stroke-width="2"/>
<path d="M240.324 -114.35L484.519 176.671" stroke="#FF5722" stroke-width="2"/>
<path d="M267.085 -136.805L511.28 154.215" stroke="#FF5722" stroke-width="2"/>
</g>
</g>
</svg>
